<?xml version="1.0" encoding="UTF-8"?>
<svg version="1.1" viewBox="0 0 1024 1024" width="1280" height="1280" xmlns="http://www.w3.org/2000/svg">
<path transform="translate(0)" d="m0 0h1024v1024h-1024z" fill="#FCFDFB"/>
<path transform="translate(493,120)" d="m0 0h26l15 3 15 6 24 14 29 17 27 16 24 14 49 29 26 15 2 1 51 1 15 2 12 4 11 6 13 11 8 10 6 11 6 16 2 12v332l-3 17-7 19-8 15-9 13-12 14-12 10-14 9-11 6 16 5 11 6 11 9 11 14 6 13 4 16v21l-4 15-7 14-11 12-10 7-11 5-9 2-174 1-17 10-21 13-22 13-15 7-17 4h-25l-14-3-12-5-16-9-17-10-15-9-19-11-167-1-14-4-11-6-10-9-6-7-8-16-3-11v-26l4-15 7-13 7-9 10-10 13-8 11-4-4-3-15-8-13-10-12-11-12-15-10-17-6-14-4-15-1-9v-335l3-15 5-13 7-12 12-13 13-9 14-6 9-2 11-1 51-1 18-10 22-13 25-15 26-15 28-17 21-12 15-9 21-12 14-7 15-4z" fill="#02232B"/>
<path transform="translate(503,148)" d="m0 0 15 1 13 4 17 9 35 21 21 12 10 6 22 13 27 16 52 30 11 4 57 1 11 3 10 5 7 6 6 8 5 10 2 7 1 12v319l-2 13-6 16-5 8-5-5-8-6-9-4-10-2h-15l-1-13v-12l-40 3-6 1h-33l-10-6-5-2v-17l11-2 9-5 8-9 4-11v-12l-5-10-9-6-19-11-1-87-2-9-5-8v-2l-4-2-5-4-10-3-51-1 5-13 12-5 6-5h2l2-4 4-9 1-4v-12l-4-11-2-4 18-14 10-10 4-6-1-4-22-8-2-1-5-17-5-12-9-15-8-10-6-7-11-9-10-7-15-8-14-5-13-3-6-1h-23l-14 3-12 5-10 7-16 2-14 5-11 8-7 6-8 10-8 13-5 11-4 14-2 13v22l2 14v7l-4 8-1 3v13l4 11 7 8 8 5 8 2 6 14-46 1-9 3-6 4-6 7-3 8-2 16-10 1-5 5v31l1 2v41l-19 11-6 7-2 6v12l4 11 9 10 8 4 10 2v17l-15 8h-28l-17-2-31-2-1 25h-14l-14 3-9 5-9 8-3-3-6-16-3-13v-330l3-13 6-12 9-9 10-6 8-3 6-1 58-1 10-4 17-9 19-11 25-15 27-16 44-26 19-11 25-15 11-5 11-3z" fill="#05CDF5"/>
<path transform="translate(504,472)" d="m0 0 10 5 18 11 22 13 15 9 26 15 29 17 15 9 17 10 20 12 2 2v6l-5 6-2 1-36 1v19l-9-1-9 3-4 4-2 4-1 8 2 8 4 7-8 7-3 7v9l3 6-4 12 1 8 3 6-3 8v10l3 7 4 7h-51l-1-148-3-8-4-6-7-6-8-3h-68l-10 4-5 5-5 8-2 8-1 145-1 1h-50l6-12 1-3v-8l-3-9 4-10-1-9-3-5 2-5 1-3v-9l-4-8-7-6 2-4 3-7v-11l-5-8-5-3-8-1-7 1v-20h-35l-6-5-2-4 1-5 13-8 26-15 34-20 26-15 22-13 24-14 22-13z" fill="#FBB603"/>
<path transform="translate(471,319)" d="m0 0 5 2 5 6 14 10 9 6 21 9 17 5 14 2h30l1 1-1 16-4 24-4 13-6 11-12 13-13 8-15 5-20 2h-15l-19-2-15-5-12-7-10-9-8-11-5-10-5-21-2-13v-12l21-11 5-4 8-7 7-7z" fill="#FBB603"/>
<path transform="translate(507,240)" d="m0 0 16 1 19 5 19 10 14 11 9 9 10 14 6 12-2 1-15-7-2 5-2 3 1 4 14 11 16 9 8 4-2 2-13 4-17 3h-28l-17-3-14-4-17-8-12-8-14-12-7-10-6-11v-3h-2l-2 10-8 16-6 9-8 10-12 9-19 10-7 2-1-1-1-9v-10l2-15 5-17 8-15 9-11 7-6 14-7 4-1 13-1 14-9 11-4z" fill="#FBB703"/>
<path transform="translate(760,350)" d="m0 0h16l11 3 10 6 7 6 6 9 4 9 2 12v34l-2 9-6 8-8 5-12 4-14 2-16-1-14-4-13-9-9-11-5-11-3-13v-12l3-12 5-10 7-9 9-7 11-5z" fill="#FCFEFB"/>
<path transform="translate(239,370)" d="m0 0h19l14 5 12 9 10 14 4 12 1 6v11l-3 13-5 10 1 7 7 17 1 6-16-8-10-6-8 1-8 2-12 1-14-2-12-6-8-7-6-9-4-9-2-8v-16l4-13 5-10 8-9 11-7z" fill="#FCFEFB"/>
<path transform="translate(504,472)" d="m0 0 10 5 18 11 22 13 15 9 26 15 29 17 15 9 17 10 20 12 2 2v6l-5 6-2 1h-7l-15-10-11-6-17-10-15-9-26-15-24-14-10-6-23-13-15-9-6-1-16 9-15 9-45 26-17 10-26 15-22 13-16 11h-8l-6-5-2-4 1-5 13-8 26-15 34-20 26-15 22-13 24-14 22-13z" fill="#FBB603"/>
<path transform="translate(467,630)" d="m0 0h30l1 27 4 4 6-1 2-2 1-27 1-1h29v98h-74z" fill="#05CDF5"/>
<path transform="translate(502,494)" d="m0 0 6 1 24 14 18 10 13 8 26 15 24 14 15 9 17 10 16 10 3 3-27 1-4 1-26-15-24-14-13-8-11-6-19-11-16-9-18-11-6 2-24 14-8 5-11 6-14 8-19 11-21 12-26 15-4 1v5h-1v-7h-27l4-4 14-9 29-17 26-15 15-9 28-16 29-17z" fill="#ED550A"/>
<path transform="translate(716,752)" d="m0 0h11l5 4 1 3v87l-3 5-1 1h-11l-6-7-6 5-5 2h-16l-10-4-9-7-7-10-3-8-1-6v-10l3-11 6-10 8-8 10-5 3-1h15l9 4 2 1-1-2v-15l2-5z" fill="#FBFDFB"/>
<path transform="translate(766,491)" d="m0 0h7l11 3 9 6 8 9 6 12 2 8v18l-3 10-6 10-5 5 1 8 4 11v4l-5-2-20-12-15-1-11-4-8-6-6-7-4-8-2-6-1-7v-8l3-12 6-12 9-10 9-6z" fill="#F3FEFB"/>
<path transform="translate(356,771)" d="m0 0 9 1 4 5v70l-4 5h-11l-6-5v-3l-8 6-6 2h-15l-10-4-8-6-6-7-4-8-2-7v-15l4-11 6-9 9-8 8-4 4-1h14l10 5 2 2 4-5z" fill="#F9FDFB"/>
<path transform="translate(549,752)" d="m0 0h7l7 3 2 3 1 40 4-7 13-18 9-12 4-5 5-3 9-1 9 2 4 5 1 5-3 7-10 11-9 11-7 8 1 5 10 11 9 11 2 4h2l5 8v7l-5 5h-17l-5-3-11-13-13-17-6-8-1-2-1 38-5 5h-14l-6-5v-89l3-4z" fill="#FAFDFB"/>
<path transform="translate(728,644)" d="m0 0h28v22l4-1h17l10 2 9 5 8 7 2 5-5 6-6 7-7 7h-3l-2 4-13 8-9 4h-5v-14h-52l-7-1-1-55-1-5h17z" fill="#24D23A"/>
<path transform="translate(253,644)" d="m0 0h33l27 1-2 9v51l-5 1h-53v14l-7-1-10-5v-2l-6-2-3-2v-2l-5-2-12-12-6-8 1-4 7-7 11-6 11-2h12l7 1z" fill="#24D33A"/>
<path transform="translate(482,771)" d="m0 0h10l8 2 8 4 7 6 5 9 1 3v10l-5 8-8 5-12 3-8 1h-16l3 5 6 3 10 1 14-3h7l6 5 1 6-3 5-8 5-11 3h-16l-10-3-8-5-6-5-6-9-3-9-1-5v-9l3-12 7-11 8-7 8-4z" fill="#F9FDFA"/>
<path transform="translate(768,364)" d="m0 0h10l10 3 7 6 3 7v12l5 1 2 7v34l-5 6-2 1-14 1h-24l-13-1-5-3-2-4v-38l3-4h5v-9l2-9 5-5 8-4z" fill="#05CDF5"/>
<path transform="translate(568,262)" d="m0 0 8 6 8 8 10 14 6 12-2 1-15-7-2 5-2 3 1 4 14 11 16 9 8 4-2 2-13 4-17 3h-28l-17-3-14-4-17-8-2-6-5-8 1-5 21-2 19-5 13-7 8-7 4-9v-10z" fill="#ED5509"/>
<path transform="translate(471,319)" d="m0 0 5 2 5 6 14 10 9 6 21 9 17 5 14 2h30l1 1-1 16-4 24-4 13-6 11-12 13-13 8-15 5-20 2h-15l-19-2-4-3-10-6-12-11v-2h-2l1-3 4 3 14 6 17 4 10 1h16l15-2 11-4 8-4 12-11 5-8 2-7v-17l-5-10-8-6-20-6-20-7-16-8-11-7-11-10-3 1-7 9-11 9-15 8-8 2 1-4 12-7 9-7 10-10z" fill="#ED5509"/>
<path transform="translate(230,548)" d="m0 0h12l10 4 10 9 6 12 1 3v15l-4 10-6 8-10 6-6 2h-14l-11-4-8-7-5-8-3-11 1-13 4-9 6-8 9-6z" fill="#F3FEFB"/>
<path transform="translate(626,650)" d="m0 0h44l5 4 1 2v62l-4 8-7 4-4 1h-33l-1-1v-6l5-1 15-1 1-7-2-1h-23l-4-2-1-7 5-5 18-1 7-1v-7l-6-1h-20l-4-2-1-7 5-5 25-1 1-9h-27l-3-3-1-5 3-5 2-2z" fill="#FBB703"/>
<path transform="translate(344,649)" d="m0 0h16l24 1 6 5 1 5-3 5-2 1h-27v10h27l4 4 1 6-3 3-2 1h-27v8l5 1 21 1 5 5v6l-3 2-20 1-8 1 1 6 5 2 16 1 1 4-2 3h-35l-9-4-4-7v-65l5-5z" fill="#F68E08"/>
<path transform="translate(246,770)" d="m0 0 13 1 10 4 6 5 2 4v6l-3 5-2 1h-8l-9-5h-10l-2 2 1 5 23 8 9 6 4 6 1 3v10l-5 10-7 7-9 4-4 1h-15l-13-4-6-4-3-4v-8l3-5 2-1h7l8 4 4 1h8l5-3v-4l-11-4-12-4-6-4-6-7-2-7 1-10 4-8 8-7 8-3z" fill="#F9FDFB"/>
<path transform="translate(774,770)" d="m0 0 12 1 9 4 7 5 2 4v8l-4 4-6 1-12-6h-9l-3 3 1 4 20 7 9 5 5 6 2 5v11l-5 10-8 7-7 3-5 1h-14l-11-3-9-6-2-3v-8l5-6h7l9 4 4 1h7l5-3-1-5-20-6-10-6-5-8-1-3v-9l3-8 6-7 9-5z" fill="#F9FDFA"/>
<path transform="translate(467,683)" d="m0 0h74v45h-74z" fill="#FDFEFC"/>
<path transform="translate(411,752)" d="m0 0h23l6 4 1 2v8l-6 5-17 1-1 7h14l5 3 2 3v7l-5 5-4 1h-11l-1 49-5 5h-12l-5-4-1-3v-47h-8l-5-3-2-3v-6l3-5 4-2h8v-8l2-8 6-7z" fill="#FAFDFB"/>
<path transform="translate(242,383)" d="m0 0h10l7 4 5 7 1 4 1 19 3 1 1 2v28l-3 4-3 1h-35l-5-5-1-3v-21l2-6 4-1v-21l4-8 6-4z" fill="#05CDF5"/>
<path transform="translate(592,447)" d="m0 0h46l5 3 3 3 1 3v74l-5-2-19-11-5-23-7-19-9-15-10-12z" fill="#F9FDFB"/>
<path transform="translate(403,670)" d="m0 0h43l1 57-1 1h-50l6-12 1-3v-8l-3-9 4-10-1-9-1-1v-5z" fill="#F68D08"/>
<path transform="translate(562,670)" d="m0 0h44l1 4-3 8 1 8 3 6-3 8v10l3 7 4 7h-51z" fill="#F58C08"/>
<path transform="translate(767,500)" d="m0 0 11 1 8 6 4 8v41l-2 5-4 3-21 1-9-1-4-4-1-3v-41l2-7 8-7z" fill="#05CDF5"/>
<path transform="translate(507,240)" d="m0 0 16 1 19 5 8 4-1 2-21 1-22 3-15 4-11 5-8 4-4-2h-8l-16 8-13 12-8 11-6 12-6 21-2 17-3-1-1-9v-10l2-15 5-17 8-15 9-11 7-6 14-7 4-1 13-1 14-9 11-4z" fill="#F9FDFA"/>
<path transform="translate(760,350)" d="m0 0h16l11 3 10 6 7 6 6 9 4 9 2 12v34l-2 9-6 8-8 5-12 4-14 2-16-1-14-4-13-9-9-11-5-11-3-13v-12l3-12 5-10 7-9 9-7 11-5zm0 3-3 1h-5l-9 4-9 6-6 5-1 4h-2l-4 6-4 13-1 2v15h2l1 9 1 2h9l1 4h-2v-2h-7l2 6 2 4h4l-1 5 8 7 4 2 4 4 6 2 14 1v2h9l11-2 9-1 4-3v-2h2l1-4h-52l-6-2h-6v-3h3l-1-9v-31l2-3 3-5 4-1-1-4 1-4v-6l3-5 4-1v-2l4-2 6-2h9l1-2h7l3 1v2l7 3 3 3 2-2h-2l1-2h2l1 4-3 1 2 4h2v2h3l-3 7 2 5h1v-6h2v7l3 3 5 1 1-5-3-5-1-8-4-3-1-1v-4h-2v-2h-2v-2l-6-5-5-3h-4v2l-7-1 5-2v-1zm8 11-10 3-6 4-3 6-1 6v9h-5l-3 4v38l2 4 5 3 13 1h24l14-1 6-5 1-2v-34l-2-7-5-1v-12l-4-8-8-6-8-2z" fill="#F3FEFB"/>
<path transform="translate(344,649)" d="m0 0h16l24 1 6 5 1 5-3 5-2 1h-27v10h27l4 4 1 6-3 3-6-1-7-1-4-2h-8l-5 1-6-1h-17l2 11-1 8-3 2-1-1v-50l5-5z" fill="#FBB603"/>
<path transform="translate(679,276)" d="m0 0h11l8 3 6 5 4 7 1 4 7-2h10l6 3 4 6 1 5h-100l4-4 8-3h7l3-9 6-8 7-5z" fill="#FCFEFB"/>
<path transform="translate(654,684)" d="m0 0 19 1 1 3v10l1-14h1v34l-4 8-7 4-4 1h-33l-1-1v-6l5-1 15-1 1-7-2-1h-23l-4-2-1-7 5-5 18-1 7-1v-7l-6-1v-2h6v-2z" fill="#ED5509"/>
<path transform="translate(746,503)" d="m0 0 2 3-1 9h-1l-1-6h-2l1 8v10l2 1 1 7v8l-1 10 4 11 5 2-1 4 6-1v-2l3-1h21l4-2 3-7 2 1v-45l-2-1 1-2 6 1 2 2 2 5 1 5-1 4 2 2 1 11-3 8h3l-1 6-2 3v3l-3 1-3 7-2 1-2 9-3 1 2 5 3 2 1-2 1 5-2 1v-2l-6-1-3-2v-2l-4-2-5-2-8-1h-9l-3-1v-2h-5v-3l-3-3v-3l-5-1-1-5-5 1-3-5-3-6-1-6v-10l3-12 4-7 7-11z" fill="#FCFEFB"/>
<path transform="translate(301,309)" d="m0 0 9 1 6 4 4 5 2 6 9-4h10l7 3 5 4 4 7v4h-94l1-3 9-4 8-2 3-10 4-5 8-5z" fill="#FCFEFB"/>
<path transform="translate(639,776)" d="m0 0h10l5 4 1 3v62l-3 5-2 2h-12l-5-5-1-12v-51l3-6z" fill="#FBFDF9"/>
<path transform="translate(454,879)" d="m0 0h106l-4 4-9 5h-3v2l-12 6-11 4-11 2h-8l-19-4-17-10-12-8z" fill="#003742"/>
<path transform="translate(352,485)" d="m0 0h41l-1 7-4 17-1 7-23 13-10 6h-2z" fill="#ED5509"/>
<path transform="translate(231,557)" d="m0 0h9l5 3 3 5v11l3 1 1 3v17l-3 5-3 1h-24l-4-3-1-6 1-17 2-1 2-12 4-5z" fill="#05CDF5"/>
<path transform="translate(698,705)" d="m0 0 58 1v15l-3 7-30 1h-24l-2-2z" fill="#079F34"/>
<path transform="translate(306,705)" d="m0 0 4 1v16l1 4-4 3h-51l-3-7v-16z" fill="#079F34"/>
<path transform="translate(476,576)" d="m0 0h21v40h-30v-32l4-6z" fill="#05CDF5"/>
<path transform="translate(511,576)" d="m0 0h21l6 3 3 5v32h-29l-1-24z" fill="#05CDF5"/>
<path transform="translate(438,452)" d="m0 0 5 2 11 7 14 6-3 3-22 13-17 10-14 8-1-4 6-16 9-16 11-12z" fill="#F6FCF9"/>
<path transform="translate(239,370)" d="m0 0h19l14 5 12 9 10 14 4 12 1 6v11l-3 13-5 10 1 7 7 17 1 6-16-8-10-6-8 1-8 2-12 1-14-2-12-6-8-7-6-9-4-9-2-8v-16l4-13 5-10 8-9 11-7zm3 2-11 3-2 4-5 3-1-2-5 3-2 1v3h2l1-2 3-1v2l-3 1-1 4h-3v-2h-2l-1 5h2l-1 3-2 1-2-4-2 3-4 13-1 2v10l3 8v10l3 2 2 7h2l1 4h2l2 4 3 3 4 1 5 3 6 3h16l3-2h6l-1-4 5 1v2l-2 1 7-1 3-1 11 6h3v-3h2l1-5 1 3h2l-4-12 2-11 4-1v-16h2v-4h-2v-6l1-5-3-4v-4l-5-10h-3l-2-5-4-5-5 2-3-1-1-5-3 1-2-4-7-2h-6l-4 1z" fill="#F3FEFB"/>
<path transform="translate(567,454)" d="m0 0 5 1 7 6 4 5 2 4 4 4v5l3 1 3 7 4 11h-2l-1 2-4-3-7-3v-2l-7-2-8-4-7-4v-2l-5-1-11-8v-3l-5 1-2-2 15-6 8-4z" fill="#069F34"/>
<path transform="translate(324,795)" d="m0 0h9l7 4 4 5 2 5v7l-3 6-7 6-6 2-8-1-6-4-4-5-1-2v-11l5-8 4-3z" fill="#02242C"/>
<path transform="translate(691,795)" d="m0 0h8l6 3 5 6 2 6-1 9-4 6-7 4-8 1-9-4v-2h-2l-3-6v-11l5-8z" fill="#02242C"/>
<path transform="translate(332,705)" d="m0 0 23 1 11 1v2l6 1h16l1 2-2 1-20 1-8 1 1 6 5 2 16 1 1 4-2 3h-35l-9-4-4-7z" fill="#ED550A"/>
<path transform="translate(654,684)" d="m0 0 19 1 1 3v10l1 8-28 2-3 2-12 2h-7l-7-2v-5l5-5 18-1 7-1v-7l-6-1v-2h6v-2z" fill="#F68D08"/>
<path transform="translate(245,552)" d="m0 0 6 2 4 4 2 5 1-2h2v2l3 3 3 10 1 8-2 12-3 6h-2l-1 3-5 1 1 3-6 3-3 2-5 1h-11l-11-4-3-3 3-1h-6l-1-5h7l3 3 3 1v2h3l1-3h3l3 3 1-3 9 1 1 2h2l1-4 4-4v-6l2-2-1-1v-5l1-5-5-9-3-12-2-3h-4v-3z" fill="#FCFEFB"/>
<path transform="translate(425,360)" d="m0 0h4l4 28 4 16 8 16 5 6v2h2l6 7 10 8 11 5v1l-8-1-12-5-11-7-9-9-9-14-5-16-4-23v-12z" fill="#F9FCF8"/>
<path transform="translate(376,447)" d="m0 0h42l-6 8-8 11-37-1v-10l6-7z" fill="#F9FDFB"/>
<path transform="translate(470,316)" d="m0 0 5 1 6 7v2l4 1 8 6v2l6 2 8 5 5 3 13 5 4 2 12 3 13 2h33l4 3-3 17-4 23-4 13-4 8-8 11-4 5-15 9-5 1v2l-16 4-16 1-27-1-9-1-2-3 23 2h15l20-2 15-5 10-6 10-9 7-10 5-11 5-25 2-15v-8h-30l-18-3-21-7-16-8-12-8-9-7-5-6-4-2-2 5-8 11-12 12-6 4-14 8-2-1 9-6 4-1 2-4 6-3 5-4 3-4h2l2-5 5-5 3-5z" fill="#1A1A12"/>
<path transform="translate(403,713)" d="m0 0h44v14l-1 1h-50l6-12z" fill="#ED5509"/>
<path transform="translate(352,485)" d="m0 0h41l-1 7-2 5h-27v21l-1 1h-10z" fill="#FBB503"/>
<path transform="translate(603,707)" d="m0 0h1l2 11 6 10h-51l1-15h40z" fill="#ED5509"/>
<path transform="translate(301,309)" d="m0 0 9 1 6 4 4 5 2 6 9-4h10l7 3 5 4 4 7v4h-94l1-3 9-4 8-2 3-10 4-5 8-5zm-3 3-9 6-3 3-4 11v2l-10 1-1 2h48l1-3 4 3h17l1-1h5l1 1h6l-1-4-6-3h-8v-2h-10l-1 4-5-2-3-1-1-8-3-1-1-4-3-1-1 2h-5v-3h3v-2z" fill="#F3FEFB"/>
<path transform="translate(240,378)" d="m0 0 11 2 6 4 5 1v-2l4 1-1 2h-2l4 10v18h2v2h2l1 7v27h-2v2h-2l-1 3-2 1h-32l-5 3-1-4-4-2-1 3-1-2 1-4h-4v-2h2v-13l-1-13 3-6h4v-22h-2v2h-2v-5l3-1 1-3 3-1 1-2 6 1 1-3 3-2zm2 5-8 4-4 6-1 3v21l-5 2-1 5v21l3 6 3 2h35l5-3 1-2v-28l-1-2-3-1-1-19-3-7-4-5-6-3z" fill="#F3FEFB"/>
<path transform="translate(679,276)" d="m0 0h11l8 3 6 5 4 7 1 4 7-2h10l6 3 4 6 1 5h-100l4-4 8-3h7l3-9 6-8 7-5zm1 2-5 2v3l-9 2-1 4-3 1 1 2v6l-2-4-3 3 1 8h73l2-2-4-3v-2h-3l-1 2h-3l1-5h-7l-8 2-4-1 1-5-7-4v-4l-5-3-5-1-1 2-4 1 1-4z" fill="#F3FEFB"/>
<path transform="translate(190,291)" d="m0 0 1 3-3 9-1 6-1 330h-2v-327l3-19z" fill="#003742"/>
<path transform="translate(373,248)" d="m0 0h12l7 4 6 9v4h-46l5-5 6-2 4-6z" fill="#F3FEFB"/>
<path transform="translate(551,249)" d="m0 0 5 2 10 7 16 12 1 4h2l8 11 8 16v3l-9-1-4-3-5 1-1 6 6 5 9 6 11 7 10 5 2 3-7 4-12 4-17 2h-29l-27-6v-2l-5-1-1-2 5 1 14 4 17 3h28l17-3 13-4 1-1-16-8-10-6-13-11 1-4 4-7 9 3 7 3-6-12-8-11-9-10-12-10-14-8z" fill="#1B1A12"/>
<path transform="translate(157,302)" d="m0 0h1v348h-1l-2-14v-271l-1-43 1-4v-14z" fill="#F3FDF9"/>
<path transform="translate(559,576)" d="m0 0 2 4v148l50-1-6-9-1-4v-10l3-8h2l-1 5-2 4 1 9 2 8 4 2v5l-1 1h-50l-3-2z" fill="#1B1A12"/>
<path transform="translate(824,304)" d="m0 0h1l1 9h1v319l-3 19h-2l2-16z" fill="#003742"/>
<path transform="translate(772,374)" d="m0 0 7 1 6 3 3 5v8l-2 1h-27v-12l5-4z" fill="#F3FEFB"/>
<path transform="translate(243,392)" d="m0 0h7l6 5v20h-19v-20z" fill="#F3FEFB"/>
<path transform="translate(626,618)" d="m0 0 9 1 14 8 12 8 2 3-28-1-7-3-4-5-1-5z" fill="#ED5A09"/>
<path transform="translate(344,649)" d="m0 0h16l24 1 6 5 1 5-11-1-28-1-19-3 2-4z" fill="#F9FAF0"/>
<path transform="translate(453,567)" d="m0 0 1 2-3 8h-2v150l-4 3-11 1-37-1-1-2 50-1 1-145 2-8z" fill="#1B1A12"/>
<path transform="translate(376,618)" d="m0 0h5l3 3 1 5-3 6-6 4-8 1-23 1 5-5 15-9z" fill="#FAB713"/>
<path transform="translate(232,550)" d="m0 0h4v2h-2v2l3 1-9 1-4 3h-2l-1 4-1-4-4 1 2 7h2v5l-5 6h-2v5l2 1v14l-4 1-4-2-1-5h4l-5-5v-7l3-5-1-1v-6l5-5 2-4 6-5h4v-2z" fill="#FCFEFB"/>
<path transform="translate(626,650)" d="m0 0h44l4 3v2l-18 3-38 1 1-5 3-3z" fill="#F9FDFB"/>
<path transform="translate(555,461)" d="m0 0 4 1 9 9 8 13 1 5-7-3-7-4v-2l-5-1-11-8v-3l-5 1-2-2z" fill="#24D23C"/>
<path transform="translate(640,749)" d="m0 0h7l5 3 3 5-1 8-3 3-3 1h-9l-6-5v-8l3-5z" fill="#FCFDFA"/>
<path transform="translate(467,683)" d="m0 0h74v45h-74zm6 1-5 5v38h71l1-3v-20l-1-2v-12l-1-2h-2v-3z" fill="#F3FEFB"/>
<path transform="translate(331,656)" d="m0 0h1l1 64 3 5v2l9 3h35l1-5-16-1-5-2-2-3 1-5 8-1 20-1 2-1v-6l-4-5 4 1 2 2 1 8-3 4-4 1h-23l1 4 8 1 11 1 2 4-2 6-2 1h-33l-9-3-6-4-1-2z" fill="#1B1A12"/>
<path transform="translate(446,463)" d="m0 0 6 1 13 5-5 4-17 10-10 6h-2l1-6 9-15z" fill="#FBB703"/>
<path transform="translate(469,383)" d="m0 0h9l5 4 1 9-4 6-2 1h-9l-5-4-1-9 3-5z" fill="#01232B"/>
<path transform="translate(531,383)" d="m0 0h8l5 4 1 2v8l-4 5-2 1h-9l-5-6v-8l4-5z" fill="#02232B"/>
<path transform="translate(234,665)" d="m0 0h12l7 1-1 5-20 2-13 4-10 7-1 2-4-2 1-4 7-7 11-6z" fill="#FAFDF9"/>
<path transform="translate(760,665)" d="m0 0h17l10 2 9 5 8 7 2 5h-4l-11-7-13-4-21-2-1-5z" fill="#F2FCFB"/>
<path transform="translate(675,654)" d="m0 0 2 1v68l-5 6-11 4h-33l-2-1-2-8 3-2 9-1h8l2-2v-3l-27-1-3-5 1-5h1l2 7 3 1h23l3 2-1 7-1 1-20 1 1 6h33l10-4 4-8z" fill="#1B1A12"/>
<path transform="translate(728,644)" d="m0 0h28l-1 4-54 3-5-1-1-5h17z" fill="#E9FCFA"/>
<path transform="translate(659,437)" d="m0 0h2l6 10 2 9v87l-2 1-1-24v-70l-3-5-3-2v-4l-2-1z" fill="#003641"/>
<path transform="translate(253,644)" d="m0 0h33l27 1-2 6-52-3-6-1z" fill="#F1FDFB"/>
<path transform="translate(767,405)" d="m0 0h7l4 3v8h-2v2h-2l1 11h-8l-1-2v-9l-3-3v-6z" fill="#F4FEFB"/>
<path transform="translate(482,791)" d="m0 0h11l5 3 3 4-6 3-6 1h-19l2-4 5-5z" fill="#02242C"/>
<path transform="translate(811,396)" d="m0 0h1l1 6v32l-2 6-3 1v-3h-3l1-4 3 1 1-2-3-1-1-33 4-1z" fill="#FDFEFC"/>
<path transform="translate(375,251)" d="m0 0 9 4h2l-2-1v-2l4 1 3 3h-3v3l2 1v3h-4l-1-4-1 4h-18l-2-2 3-5h2l1-4z" fill="#FDFEFC"/>
<path transform="translate(360,699)" d="m0 0 25 1 5 5v6h-2v-3l-32-2-1-4z" fill="#FBB503"/>
<path transform="translate(469,282)" d="m0 0h2l8 16v3l-7-10-2-4-3 9-4 8-3 7-5 8-2 1-3 5-15 12-12 7-10 5h-4v-2l19-9 12-8 7-6 10-14 8-16z" fill="#1B1A12"/>
<path transform="translate(626,618)" d="m0 0 9 1 14 8 12 8 2 3-5-2-11-7-16 1-5-6v-2l-2-1z" fill="#FBB405"/>
<path transform="translate(391,639)" d="m0 0 7 6 4 5 2 5v9l-3 6 2 6 2 5-1 9-3 6 3 9v8l-4 10-3 4h-3l2-4 3-5 2-5-1-10-1-9 2-3-1-6h2l-1-7-2-5 2-14-1-7-1-3-4-2-5-6z" fill="#1B1A12"/>
<path transform="translate(331,571)" d="m0 0 3 1-4 3 1 6 4 5 2 1 35 1v20l7-2 8 1 6 4 5 8v11l-4 8-2-2 1-2h2v-15l-3-6-4-2v-2h-17l-1-19-36-1-6-7-1-6 2-4z" fill="#1B1A12"/>
<path transform="translate(466,630)" d="m0 0h1v98h43v1h-44l-1-53v-40l-1-5z" fill="#003742"/>
<path transform="translate(240,396)" d="m0 0 4 1 1 4h7l2 4-1 5-4 5-5-1-5-3v-13z" fill="#FDFEFC"/>
<path transform="translate(350,639)" d="m0 0h19l1 5h5l-1-3h2v2l7-1v3l-7 1-24 1-7-2 2-3 4-1z" fill="#022331"/>
<path transform="translate(766,377)" d="m0 0h10l-3 2 6 4 1 4-8 3-6 1-5-3v-6l1-2h2v-2z" fill="#FCFEFB"/>
<path transform="translate(766,508)" d="m0 0h7l6 4 2 3-1 6-4-2-2-2-7-1-5 3-3 3-1-1v-7l5-5z" fill="#F3FEFB"/>
<path transform="translate(622,676)" d="m0 0h26l1 3-1 2-3 1-24 1-4 1 1-5z" fill="#FAFCF6"/>
<path transform="translate(604,368)" d="m0 0h2l4 8v9l-4 8-4 4h-2l1-13z" fill="#ED5609"/>
<path transform="translate(359,676)" d="m0 0h27l4 4v3l-28-1-2-1z" fill="#FBFEFB"/>
<path transform="translate(469,629)" d="m0 0h29l1 3 1 23 5 4v-2l3-1 2-24h1v26l-5 4-6-1-3-4v-27h-28z" fill="#003742"/>
<path transform="translate(352,485)" d="m0 0h41l-1 5-40-1z" fill="#F5FDFB"/>
<path transform="translate(641,699)" d="m0 0h7v2l2 1-2 2-8 2h-13l-5 2v-2h-2l-1 3-1-4 5-5z" fill="#FBB503"/>
<path transform="translate(541,630)" d="m0 0 3 1-1 7 1 2-1 36 1 6h-2v46h-1z" fill="#003742"/>
<path transform="translate(402,368)" d="m0 0h2l4 22v7l-7-6-2-4v-14z" fill="#ED5A09"/>
<path transform="translate(334,626)" d="m0 0h2l-1 3-7 3-3 3h-37l-3-1-39-3v18l-1 6h-1v-23l1-2h19l23 2 6 1h28z" fill="#003641"/>
<path transform="translate(383,621)" d="m0 0 2 3-2 7-5 4-10 2h-16l3-3 12-3 10-2 4-4z" fill="#ED550A"/>
<path transform="translate(234,665)" d="m0 0h12l7 1-1 5-20 2-7 1 2-2 4-2-8-2 4-2z" fill="#D1F7FA"/>
<path transform="translate(769,528)" d="m0 0 5 2 2 2v5l-2 3h-2l-1 7h-3l-2-7-3-3v-5l3-3z" fill="#F3FEFB"/>
<path transform="translate(157,302)" d="m0 0h1l-1 90h-1l-2-70 1-4v-14z" fill="#F1FDFA"/>
<path transform="translate(616,682)" d="m0 0 3 6 3 1h20l7 2v6l1 2-27 2-5 4v-3l6-4 16-1 6 1-1-6h-21l-8-3-1-5z" fill="#1B1A12"/>
<path transform="translate(603,367)" d="m0 0h5l4 7v11l-3 7-3 4h-2v2h-2v2l-4-1 1-17 3-14zm1 1-3 16-1 13 4-2 4-5 2-5v-9l-4-8z" fill="#1A1A12"/>
<path transform="translate(392,489)" d="m0 0 2 4-2 4-3 19-5 5-10 5-14 8-6 3h-2v-2l32-18 2-1 3-17z" fill="#1B1A12"/>
<path transform="translate(623,660)" d="m0 0 1 2 5 1 23 1 2 3v6l-3 3-4-1 1-9h-27l-1-4z" fill="#F48308"/>
<path transform="translate(232,564)" d="m0 0h6l3 3v8l-12 1-1-1v-8z" fill="#F3FEFB"/>
<path transform="translate(379,616)" d="m0 0 7 3 1 8-3 6-6 5-9 1h-17l-4-2 20-1 10-2 5-5 1-5-3-5-7 1-4 1 3-4z" fill="#1B1A12"/>
<path transform="translate(401,367)" d="m0 0 2 1-3 5v14l4 6 3 3-1-11-2-13v-5l2 2 5 24-1 5-4 1-7-8-2-3v-16h2l1-4z" fill="#1B1A12"/>
<path transform="translate(509,576)" d="m0 0h2l1 16v24h29l-3 2-27-1-2-5z" fill="#003742"/>
<path transform="translate(245,426)" d="m0 0 5 1 2 3-1 4-1 1v8l-5 1-1-1v-7l-3-2 1-6z" fill="#F4FEFB"/>
<path transform="translate(365,662)" d="m0 0h13l5 2v1l-9 1h-15v10l-4-1-2-3 1-5 3-3h8z" fill="#F48508"/>
<path transform="translate(470,556)" d="m0 0h68l8 3-3 1-9-2h-61l-11 3v2l-5 3h-2l1-3 8-5z" fill="#1B1A12"/>
<path transform="translate(391,682)" d="m0 0 2 2-1 5-4 2-26 1v5h11l11 1 1 2h-21l-6-1 1-9 27-1 4-1z" fill="#1B1A12"/>
<path transform="translate(688,554)" d="m0 0 5 2 6 5 4 9v12l-4 11-5 5-1-3h2l3-9 1-1 1-11v-6l-2-1-2-4v-3l-5-2-3-2z" fill="#003742"/>
<path transform="translate(695,645)" d="m0 0 33 1-4 2-6 2-21 1-2-3z" fill="#F6FCF8"/>
<path transform="translate(469,383)" d="m0 0h9l5 4 1 9-4 6-2 1h-9l-5-4-1-9 3-5zm2 1-4 3v2h-2v7l4 5 6 1 6-4 2-6-4-4v-3z" fill="#1B1A12"/>
<path transform="translate(474,575)" d="m0 0h24l1 2 1 35-2 4h-1v-40l-21 1-6 2 1-3z" fill="#003742"/>
<path transform="translate(334,467)" d="m0 0h2l-1 4-3 4v24l2 2-1 46-2-1v-41l-1-2v-31z" fill="#003641"/>
<path transform="translate(564,758)" d="m0 0h1l1 48-1 41-2-4v-46h-1l1-8z" fill="#EEFDFA"/>
<path transform="translate(730,756)" d="m0 0h2l1 3v87h-1l-1-21v-64l-2-4z" fill="#F0FDFA"/>
<path transform="translate(272,731)" d="m0 0h31l2 3h-48l3-2z" fill="#022332"/>
<path transform="translate(612,643)" d="m0 0 2 1-3 4h-2l-2 6v10l2 5-1 8-2 4v5l1 4 2 5-3-1-3-7 1-9 3-6-2-6-1-2v-9l4-8z" fill="#1B1A12"/>
<path transform="translate(293,259)" d="m0 0 3 2-10 4-58 1-9 2-5 1-1-2 7-2 4-1 58-1 8-1 1-2 2 1z" fill="#003641"/>
<path transform="translate(623,375)" d="m0 0h1v12l-4 11-4 6-10 7-5 2-4-1 8-4 6-4 4-4h2v-5l3-3v-7l2-4v-5z" fill="#003742"/>
<path transform="translate(760,665)" d="m0 0h17l-4 3-1 3h6v1l-21-1-1-5z" fill="#E4FAFA"/>
<path transform="translate(391,658)" d="m0 0h2v5l-6 5h-25v6h6l1 2h-10l-1-7 1-3 27-1 3-2z" fill="#1B1A12"/>
<path transform="translate(623,619)" d="m0 0h2l-1 6 3 7 4 3 4 1 25 1-1 2h-23l-8-2-6-8-1-5z" fill="#1B1A12"/>
<path transform="translate(637,588)" d="m0 0h34v1l-23 2h-10l-1 15-2 2v-19z" fill="#1B1A12"/>
<path transform="translate(360,688)" d="m0 0h24l2 2h-27v8l1 2-4-1-2-2v-6l2-2z" fill="#ED5809"/>
<path transform="translate(826,379)" d="m0 0h1l1 11v11l1 7-1 24h-2z" fill="#022332"/>
<path transform="translate(480,301)" d="m0 0 5 5 10 9 15 10 12 6v1l-7-1v-2l-7-2-11-8-6-4v-2l-4-1-5-6v-2h-2z" fill="#1B1A12"/>
<path transform="translate(761,494)" d="m0 0 5 1 4 2v1l-12 1 1 2-5 3h-2l-2 5-1-2v-6l3-3z" fill="#FDFEFC"/>
<path transform="translate(497,412)" d="m0 0 4 2v2l7-1v-2l4-1v6l-4 3h-7l-3-3z" fill="#EE6009"/>
<path transform="translate(311,593)" d="m0 0 3 3v2l5 2 5 3 3 1 1 2 9 2 1 4-1 14h-1v-17l-10-1-9-5-7-7z" fill="#003641"/>
<path transform="translate(639,776)" d="m0 0h10l5 4v3l-3-1-1-3-9-1-4 4-1 2-2 1-1 32h-1v-33l3-6z" fill="#6FE2F7"/>
<path transform="translate(463,470)" d="m0 0 2 1-6 5-5 1-1 3-6 3-9 5-3 2h-3v2l-4-1 17-10z" fill="#1A1A12"/>
<path transform="translate(467,577)" d="m0 0 1 2 2 1-2 4-1 32h-3l1-36h2z" fill="#003641"/>
<path transform="translate(748,630)" d="m0 0h16l1 12v13l-2-3-1-5 1-4v-11h-11l-14 1h-14v-1z" fill="#003742"/>
<path transform="translate(631,684)" d="m0 0h9v2l2 1-10 1v2h-10v-2l-3-1 4-2h8z" fill="#F37D09"/>
<path transform="translate(735,644)" d="m0 0h21l-1 4-25-1v-1l5-1z" fill="#F3FEFB"/>
<path transform="translate(641,552)" d="m0 0 5 1 11 7 11 6 8 5 3 3h-3l-22-13-13-8z" fill="#1B1A12"/>
<path transform="translate(351,488)" d="m0 0h1v47l-3-4 1-15v-14z" fill="#1B1A12"/>
<path transform="translate(308,561)" d="m0 0 3 1-3 10-2 4-1 5h2l3 10-1 3-4-8-1-4v-12z" fill="#003742"/>
<path transform="translate(591,427)" d="m0 0h51l10 3v3l-8-3-5-1-48-1z" fill="#003742"/>
<path transform="translate(501,407)" d="m0 0h6l2 2-1 6-7 1-2-3 1-5z" fill="#F3FEFB"/>
<path transform="translate(646,641)" d="m0 0h7l9 3 1 3h-7l-13-2v-3z" fill="#022332"/>
<path transform="translate(579,514)" d="m0 0 14 8 12 7 10 6-1 2-16-9-20-12z" fill="#1B1A12"/>
<path transform="translate(640,749)" d="m0 0h7l3 1-1 3-7-1h-2l-4 5 1 4-1 1 2 1v2l-3 1-2-2v-8l3-5z" fill="#E6FBFA"/>
<path transform="translate(773,666)" d="m0 0h11l3 1 1 5-6-1h-10z" fill="#F8FCF8"/>
<path transform="translate(535,490)" d="m0 0 5 1 25 15 8 5-2 1-14-8-22-13z" fill="#1B1A12"/>
<path transform="translate(658,225)" d="m0 0 6 3v2l9 3 6 4 7 4-2 2-28-16z" fill="#003640"/>
<path transform="translate(616,202)" d="m0 0 5 1 11 7 12 6 4 3v2l-5-2-16-9-11-7z" fill="#003742"/>
<path transform="translate(538,579)" d="m0 0h3l2 4v17l1 15-3 1-1-32z" fill="#003742"/>
<path transform="translate(796,673)" d="m0 0 5 3 5 6-1 3-4-2-8-5v-2h2z" fill="#E1FAFA"/>
<path transform="translate(653,783)" d="m0 0h2v20l-1 5-2-1v-18z" fill="#DCF9FA"/>
<path transform="translate(219,673)" d="m0 0 5 1-3 2-11 7-2 3-4-2 1-4 5-1v-3l4 1z" fill="#EFFDFA"/>
<path transform="translate(507,240)" d="m0 0 16 1v1h-14l-1 1-13 1-9 2v-2l11-3z" fill="#C4F4F9"/>
<path transform="translate(646,665)" d="m0 0h6l2 2v6l-3 3-4-1 1-9z" fill="#ED5609"/>
<path transform="translate(790,657)" d="m0 0 5 1 8 5 9 8 3-3 1 3-3 2-5-1v-2l-2-1-1-2-3-1v-2h-2v-2l-7-1z" fill="#003641"/>
<path transform="translate(233,582)" d="m0 0 4 1 1 4-3 9h-2v-7h-2v-5z" fill="#F3FEFB"/>
<path transform="translate(219,656)" d="m0 0 4 1-7 2v2l-7 3-5 5-5 3-2-1 11-10z" fill="#003641"/>
<path transform="translate(631,320)" d="m0 0 5 1 12 4 2 2-1 5-3 2-1-3v-4l-6-2-5-1z" fill="#003742"/>
<path transform="translate(537,154)" d="m0 0 5 2 3 3 7 3 3 3 5 2v2l-6-2-15-9-4-3z" fill="#003641"/>
<path transform="translate(616,660)" d="m0 0h2l3 5 27 1v9h-2l-1-7-25-1-3-3z" fill="#1B1A12"/>
<path transform="translate(613,613)" d="m0 0 1 3-2 8 1 9 4 4v5h-3v-3l-4-7-1-8 2-8z" fill="#1B1A12"/>
<path transform="translate(529,389)" d="m0 0 1 3 1 4 7 2-1 3h-6l-4-4-1-7z" fill="#012330"/>
<path transform="translate(338,497)" d="m0 0 4 1v12l-1 2-3-1z" fill="#022332"/>
<path transform="translate(411,386)" d="m0 0h2l2 10-3 7h-4v-3l2-1v-12z" fill="#022331"/>
<path transform="translate(315,705)" d="m0 0h2l1 4v13h-5l1-16z" fill="#022332"/>
<path transform="translate(376,447)" d="m0 0h28v1l-27 1-2 3-1-1-2 1v3h-4l2-4 3-3z" fill="#8EE9F8"/>
<path transform="translate(592,186)" d="m0 0 6 3v2l9 3 2 4 5 1v2l-6-2-11-7-7-4z" fill="#003540"/>
<path transform="translate(642,689)" d="m0 0h11l1 7-2 3-4-2v-6l-6-1z" fill="#ED550A"/>
<path transform="translate(691,597)" d="m0 0 3 2-7 6-10 4h-7l3-2 7-2 3-2h5l1-4h2z" fill="#003641"/>
<path transform="translate(242,666)" d="m0 0h11l-1 5h-7l-5-3z" fill="#F8FEFB"/>
<path transform="translate(415,522)" d="m0 0 3 1-22 13-3 1v-2l7-4 6-4h3l1-3z" fill="#1B1A12"/>
<path transform="translate(330,323)" d="m0 0h8l7 2v3l-8-1h-7l-3 1 2-4z" fill="#FCFEFB"/>
<path transform="translate(179,308)" d="m0 0h1l1 12-1 15h-2v-25z" fill="#022332"/>
<path transform="translate(315,646)" d="m0 0 2 1 1 1v6l-1 2h-4l-2-6 1-3z" fill="#012532"/>
<path transform="translate(383,540)" d="m0 0 3 1-5 4-17 10h-2v-2l14-8 2-2 4-1z" fill="#1B1A12"/>
<path transform="translate(355,666)" d="m0 0h4v10l-4-1-2-3 1-5z" fill="#ED550A"/>
<path transform="translate(509,473)" d="m0 0 8 4 11 7 6 4-2 1-23-14z" fill="#1B1A12"/>
<path transform="translate(348,447)" d="m0 0h2l-1 19h-3v-10z" fill="#003742"/>
<path transform="translate(528,385)" d="m0 0 1 2-2 3 1 7 3 3 7 1 3-2v3l-2 1h-9l-5-6v-8z" fill="#1B1A12"/>
<path transform="translate(531,383)" d="m0 0h8l5 4 1 2v8l-3 3 1-9-4-4v-2h-10z" fill="#1B1A12"/>
<path transform="translate(441,261)" d="m0 0m-2 1h2v3h-2l-1 3-5 2v2l-7 2 6-7z" fill="#D9F8FA"/>
<path transform="translate(486,481)" d="m0 0 2 1-15 9-7 4-2-1 5-4 6-3 4-1v-2z" fill="#1B1A12"/>
<path transform="translate(653,821)" d="m0 0 2 1v23h-1l-1-5-1-18z" fill="#CDF6FA"/>
<path transform="translate(677,817)" d="m0 0 3 3 1 4h2v2l6 2-6 3-2-4-4-3 1-4h-2z" fill="#E3FAFA"/>
<path transform="translate(755,721)" d="m0 0h1v8h-33v-1l30-1z" fill="#003742"/>
<path transform="translate(356,689)" d="m0 0h3v9l1 2-4-1-2-2v-6z" fill="#ED550A"/>
<path transform="translate(626,606)" d="m0 0 8 1 1 2h-15l-1 3-5 1 1-3 6-3z" fill="#1A1A12"/>
<path transform="translate(509,820)" d="m0 0 7 1 1 4-4 2-6-2v-3h2z" fill="#022332"/>
<path transform="translate(588,766)" d="m0 0 2 3-3 3-1 4-7 6-2-1z" fill="#DFF9FA"/>
<path transform="translate(641,676)" d="m0 0h7l1 3-1 2-3 1h-18v-1l19-1-1-2h-4z" fill="#F3FEFB"/>
<path transform="translate(450,318)" d="m0 0v3l-6 7-11 8-2-1 10-8z" fill="#ED550A"/>
<path transform="translate(794,268)" d="m0 0 6 1 11 7 4 6h-3l-1-3-4-2-5-4-8-4z" fill="#003742"/>
<path transform="translate(615,631)" d="m0 0 6 3 1 1-1 7h-2l-1-5-4-2z" fill="#012332"/>
<path transform="translate(390,351)" d="m0 0 2 2v10l-5 8-1-3 3-5v-11z" fill="#003641"/>
<path transform="translate(694,248)" d="m0 0 6 1 5 2 4 2 3 4-2 1-16-9z" fill="#003641"/>
<path transform="translate(356,556)" d="m0 0 2 2-20 12-2-1 9-6z" fill="#1B1A12"/>
<path transform="translate(395,288)" d="m0 0h1v6 2l2 5v3l-4-2-2-3 2-9z" fill="#012C39"/>
<path transform="translate(222,737)" d="m0 0 6 2 8 4-2 2-5 1-2-2-2-4z" fill="#DCF8FA"/>
<path transform="translate(632,347)" d="m0 0 2 1-15 11-1-3 7-5h2l1-3z" fill="#003540"/>
<path transform="translate(762,773)" d="m0 0 2 1-4 5-2 2h-4l-3 2 2-4z" fill="#CEF6FA"/>
<path transform="translate(643,625)" d="m0 0 6 2 12 8 2 3-5-2-11-7z" fill="#F5F8E7"/>
<path transform="translate(314,586)" d="m0 0h3v8l-5 1-1-5z" fill="#022332"/>
<path transform="translate(660,629)" d="m0 0 9 2 4 2-1 2-11-2-3-2z" fill="#012332"/>
<path transform="translate(773,494)" d="m0 0 6 1 2 1v2h2v3l-5-1-5-3z" fill="#FDFEFC"/>
<path transform="translate(502,471)" d="m0 0 6 1-1 2-3-1-14 8-2-1 4-4 7-3z" fill="#1B1A12"/>
<path transform="translate(650,753)" d="m0 0 4 1 1 8-2 3-2-6z" fill="#DCF8FA"/>
<path transform="translate(782,670)" d="m0 0 6 2 5 5-10-3-5-1v-2z" fill="#F3FEFB"/>
<path transform="translate(593,514)" d="m0 0h5v4h-6v2h-4v-2z" fill="#022331"/>
<path transform="translate(415,414)" d="m0 0 1 3 5 6-1 2v2l-3-1-4-9v-2z" fill="#003742"/>
<path transform="translate(502,408)" d="m0 0h3v2l2 1-3 4-5-2v-3z" fill="#FBFEFB"/>
<path transform="translate(570,240)" d="m0 0 5 2 9 7-4 1-1-3-6-2-2-1v-2l-2-1z" fill="#003742"/>
<path transform="translate(344,842)" d="m0 0h4v2l-8 6-5 1 2-3h3v-3l4-1z" fill="#E7FBFA"/>
<path transform="translate(735,644)" d="m0 0h9l2 1v2h-16v-1l5-1z" fill="#FDFEFC"/>
<path transform="translate(477,234)" d="m0 0h9l3 3-5 1-7-2z" fill="#022332"/>
<path transform="translate(502,146)" d="m0 0 16 2v1h-23l1-2z" fill="#003742"/>
<path transform="translate(325,549)" d="m0 0 2 1-9 7-4 2-3-1 9-6z" fill="#003742"/>
<path transform="translate(770,532)" d="m0 0 4 2v3h-7l-2-4z" fill="#FDFEFC"/>
<path transform="translate(501,462)" d="m0 0 8 1-1 3h-8l-1-3z" fill="#022332"/>
<path transform="translate(640,749)" d="m0 0h7l3 1-1 3-7-1h-2l-3 3v-3z" fill="#EBFCFA"/>
<path transform="translate(622,709)" d="m0 0 1 2 9 1v2h-9l-4-2v-2z" fill="#EE5E09"/>
<path transform="translate(302,646)" d="m0 0h10v3l-3 1-8-1z" fill="#FDFEFC"/>
<path transform="translate(307,573)" d="m0 0 3 4-1 5-2 2v-3h-2v-6z" fill="#022330"/>
<path transform="translate(461,495)" d="m0 0 3 1-15 9-2-1 7-5z" fill="#1B1A12"/>
<path transform="translate(457,456)" d="m0 0 7 1-1 3-6 1-2-3z" fill="#022332"/>
<path transform="translate(363,430)" d="m0 0h2v2l-5 2v2h-2l-1 3-5 2 2-4 7-6z" fill="#003742"/>
<path transform="translate(767,409)" d="m0 0h3v7h3v2l-5-1-2-4z" fill="#FDFEFC"/>
<path transform="translate(820,287)" d="m0 0 2 4 2 5v8l-2-3-4-12z" fill="#003641"/>
<path transform="translate(503,624)" d="m0 0h2l1 7-2 4h-2l-1-3 1-7z" fill="#022332"/>
<path transform="translate(678,575)" d="m0 0 2 1-1 7-4 5-3 1-1-2 5-4z" fill="#1B1A12"/>
<path transform="translate(536,450)" d="m0 0h7v3l-9 1z" fill="#022331"/>
<path transform="translate(457,567)" d="m0 0 1 2-4 8h2v3h-2l-2-4v-5z" fill="#022331"/>
<path transform="translate(615,369)" d="m0 0h3v11l-3-3-1-4z" fill="#022332"/>
<path transform="translate(610,281)" d="m0 0 4 5 4 8-1 2-3-3-4-8z" fill="#003742"/>
<path transform="translate(534,225)" d="m0 0 7 1 11 4-3 1-14-4z" fill="#003742"/>
<path transform="translate(730,756)" d="m0 0h2l1 3v19h-1l-1-17-2-4z" fill="#E2FAFA"/>
<path transform="translate(713,754)" d="m0 0 1 3 3 1-5 3-1 11h-1v-12l2-5z" fill="#90E9F8"/>
<path transform="translate(696,648)" d="m0 0 22 1v1l-21 1z" fill="#F3FEFB"/>
<path transform="translate(234,566)" d="m0 0 4 1-2 1v2l-3 1-1 2-3-1 2-4z" fill="#FDFEFC"/>
<path transform="translate(688,554)" d="m0 0 5 2 6 5-1 3-2-1v-3l-5-2-3-2z" fill="#003540"/>
<path transform="translate(551,463)" d="m0 0 2 1-5 4-6 1-2-2z" fill="#E2FAFA"/>
<path transform="translate(396,406)" d="m0 0 10 3v2l3-1v2l3 1-8-1-8-5z" fill="#003742"/>
<path transform="translate(421,280)" d="m0 0 2 4-5 6h-2l2-6z" fill="#F4FBF2"/>
<path transform="translate(287,468)" d="m0 0 7 2 2 4-6-1-4-2z" fill="#FDFEFC"/>
<path transform="translate(518,149)" d="m0 0 10 1 8 3-1 2-9-3-8-2z" fill="#003742"/>
<path transform="translate(505,828)" d="m0 0h5v2l-7 2-5-1 4-2z" fill="#E1FAFA"/>
<path transform="translate(782,740)" d="m0 0h2l2 6-10-2 4-3z" fill="#EBF7E8"/>
<path transform="translate(359,676)" d="m0 0h3l1 3 7 2v1h-8l-2-1z" fill="#F3FEFB"/>
<path transform="translate(390,369)" d="m0 0 3 1 1 6-4 2z" fill="#022331"/>
<path transform="translate(749,360)" d="m0 0h3v2h-3l-2 4h-3l-1-3h2v-2z" fill="#F3FEFB"/>
<path transform="translate(488,224)" d="m0 0 4 1-12 5-3-2z" fill="#003641"/>
<path transform="translate(639,776)" d="m0 0m-2 1h2l-2 5-1 2-4 1 3-7z" fill="#F4FBF1"/>
<path transform="translate(398,760)" d="m0 0 2 3-1 5-4 1 1-6z" fill="#DBF8FA"/>
<path transform="translate(344,630)" d="m0 0h5l-2 4-6 1 1-4z" fill="#012332"/>
<path transform="translate(568,500)" d="m0 0h4l2 5-5 1-1-4z" fill="#012332"/>
<path transform="translate(589,496)" d="m0 0 4 1 3 2 3-1 1 6-11-7z" fill="#003B41"/>
<path transform="translate(438,452)" d="m0 0 2 1-1 3-3 4-4-2z" fill="#F4FEFB"/>
<path transform="translate(385,387)" d="m0 0 2 1 4 11-1 2-5-10z" fill="#003742"/>
</svg>
